# xmcd
#
# Track frame offsets: 
#        150
#        22884
#        35761
#        48158
#        66754
#        81373
#        93944
#        109726
#
# Disc length: 1684 seconds
#
# Revision: 0
# Processed by: cddbd v1.5.2PL0 Copyright (c) Steve Scherf et al.
# Submitted via: ExactAudioCopy v1.3
#
DISCID=5d069208
DTITLE=Eric Lindell - Between Motion and Rest
DYEAR=2010
DGENRE=Modern Electric Blues
TTITLE0=Lucky Lucky
TTITLE1=Try to Understand
TTITLE2=True Blue Love
TTITLE3=It's So Hard to Believe
TTITLE4=Bodega
TTITLE5=Matrimony
TTITLE6=That's Why I'm Crying
TTITLE7=Don't Fret
EXTD=
EXTT0=
EXTT1=
EXTT2=
EXTT3=
EXTT4=
EXTT5=
EXTT6=
EXTT7=
PLAYORDER=
